<svg xmlns="http://www.w3.org/2000/svg" width="100" height="100"><path fill="#5CA0DE" d="m51 100c5-0.2 18.3-0.6 24.5-1.5 8.7-1.3 13.7-6.3 14.8-7.3 11.1-10 9.3-26 9.7-39.4 0.7-30-2.6-38.2-14.8-46.5 -6-4.1-19.8-5.4-35.1-5.3 -15.3-0.1-29.1 1.2-35.1 5.3 -12.2 8.2-15.6 16.4-14.8 46.5 0.3 13.4-1.5 29.4 9.7 39.4 1.2 1.1 6.1 6 14.8 7.3 6.1 0.9 19.5 1.3 24.5 1.5 0 0 0.3 0 1 0 0.6 0 1 0 1 0zM30.8 35.6"/><path fill="#4D91CD" d="m30.8 35.6c-1.9 1.1-3.3 3.2-3.3 5.6 0 2.9 1.9 5.3 4.5 6.1 2.2 7.7 7.2 13.6 13.2 15.5 -0.3 0.9-1.5 3.3-5.7 4.8 -5.3 2-6.7 3.7-6.7 3.7l0 13.3c0 0 3.2 2.7 8.3 2.7 5.1 0 14.5 0.3 18.2 0 3.6-0.3 7.4-1.9 7.4-1.9l0-14c0 0-1.2-2-6.1-3.7 -4.1-1.5-5.7-4.2-6-5 5.8-2.1 10.6-7.9 12.7-15.4 2.6-0.8 4.5-3.2 4.5-6.1 0-2.4-1.3-4.5-3.3-5.6 -0.9-13-9-23.1-18.9-23.1 -9.9 0-18 10.2-18.9 23.1z"/></svg>