<svg xmlns="http://www.w3.org/2000/svg" width="100" height="100"><path fill="#86E381" d="m51 100c5-0.2 18.3-0.6 24.5-1.5 8.7-1.3 13.7-6.3 14.8-7.3 11.1-10 9.3-26 9.7-39.4 0.7-30-2.6-38.2-14.8-46.5 -6-4.1-19.8-5.4-35.1-5.3 -15.3-0.1-29.1 1.2-35.1 5.3 -12.2 8.2-15.6 16.4-14.8 46.5 0.3 13.4-1.5 29.4 9.7 39.4 1.2 1.1 6.1 6 14.8 7.3 6.1 0.9 19.5 1.3 24.5 1.5 0 0 0.3 0 1 0 0.6 0 1 0 1 0zM49.9 22.4"/><path fill="#77D973" d="m49.9 22.4c-9.2 0-19.7-7.7-27.5 0 -7.8 7.7 0 18.2 0 27.3 0 9.1-7.8 19.5 0 27.3 7.8 7.8 18.3 0 27.5 0 9.1 0 19.3 7.9 27.2 0 7.9-7.9 0-18.2 0-27.3 0-9.1 7.8-19.7 0-27.3 -7.8-7.6-18.1 0-27.2 0z"/></svg>